<?xml version="1.0" encoding="UTF-8"?>
<svg id="Layer_1" xmlns="http://www.w3.org/2000/svg" version="1.1" viewBox="0 0 928 378.6">
  <!-- Generator: Adobe Illustrator 30.6.0, SVG Export Plug-In . SVG Version: 2.1.4 Build 109)  -->
  <defs>
    <style>
      .st0 {
        fill: #f5010b;
      }
    </style>
  </defs>
  <g id="logo-_x2F_-Smile-badge">
    <g id="Group-6">
      <path id="Fill-4" class="st0" d="M603.5,298.7c-42.3,20.5-88.6,31.2-135.1,31.2-46.5,0-92.8-10.8-135-31.4-42.4-20.4-80.3-50.6-112.6-87l-11.5,29.6c26.1,39,61.9,72.2,103.5,96.1,46.7,26.9,101.2,41.5,155.6,41.4,54.4,0,108.8-14.6,155.5-41.6,41.7-24,77.5-57.5,103.6-96.6l-11.1-28.7c-32.4,36.5-70.4,66.6-112.9,87h0ZM743.3,133c-2.5-3.3-1.9-10,1.8-19.1,0,0,18.5-45.4,21.7-53.3h28l7.2-18.7h-28l8.4-22.6-42.6,7.3-5.8,15.3h-18.8l-6.8,18.7h18.6l-22.4,55.4c-5.7,14.1-6,24.3-.9,31.4,5,6.9,15,10.3,30.4,10.3s20.4-1.8,29.6-4.2l9-21.8h0c-5.1,2.1-13.4,4.2-20.1,4.5-4.8.2-7.6-.9-9.3-3.2h0ZM257.3,89.1c-10.2,50-40.5,52.6-46.5,52.6-9.6,0-16.6-2.4-20.7-7.2-4.4-5.2-5.6-13.2-3.4-23.9,4-19.3,20.8-48.2,50.9-48.2s12.7,2.1,16.2,6.1c4,4.7,5.2,12,3.5,20.6h0ZM298.3,94.1c7.5-32.8-21.5-51.3-59.8-51.3s-85,24.2-93.2,65c-8.7,43.6,30.1,53,55,53.3,56,.7,90.1-32.9,98-67h0ZM889.2,87.2h-52.2c4-12.4,15.6-25.9,36.5-25.9s12.4,1.8,15.2,5.5c3.3,4.3,3.5,11.4.5,20.4h0ZM879,41c-43.5,0-80.4,24.2-90.1,58.9-4.8,17.5-2.3,32.9,7.3,44.4,10.5,12.7,29.1,19.7,52.1,19.7s29.4-2.4,43.9-6.7l12-24.6c-11.2,5.4-30.5,8.4-43.4,8.4s-20.5-3.8-25.9-10.6c-5-6.2-6.2-14.5-3.7-23.5h91.8l.4-1.2c7.2-20,6.3-37.3-2.6-48.9-8.1-10.5-22.2-15.9-41.7-15.9h0ZM47.3,89.5c6.6-36.8,42.1-64.7,84.1-64.7s24.6,2.5,35,6.8l12.3-23.9c-10.4-4.7-25-7.6-38.7-7.6C72.8,0,9.9,38.3,1,89.4c-7.8,45.1,31.1,70.2,78.8,70.2s27.1-2,38.9-4.8l12.8-28.8c-7.3,3.5-25,8.8-38.9,8.8-37.7,0-49.3-22.9-45.3-45.2h0ZM423.7,98.3c10.5-22.7,31.8-33.1,45.3-33.6,10.1-.4,18.5,1.1,25.2,7.5-15.8,61.6-47.9,66.5-57.5,66.5-23.4,0-21.2-22.7-13-40.4h0ZM385.7,148.3c7.3,8,18.4,11.2,31.6,11.7,19.5.9,37.3-3,54.4-14.2-10,29.6-44.1,35.8-67,35.7-11.2,0-23.4-.5-33.1-5.2l-10,25.2c10,2.7,25,4.4,37,4.4,56.1,0,92.2-20.1,107.3-59.6l38.3-101s-11.4,3.1-19.2,3.1c-20.6,0-21.5-5.6-54.9-5.6-48,0-87.5,35.4-93.1,74.4-1.8,12.3,1.7,23.3,8.8,31h0ZM576.9,121.9c1.8-10.2,9.7-15.7,30.8-17.9,10.7-1.1,20.6-1.4,35.3-.6l-9.8,25.6c-8.8,4.4-21.3,7.2-32.8,7.7-19.7.9-25-6.8-23.5-14.9h0ZM580.3,160.8c31,0,39.1-4.8,58-5.4,21.1-.6,31.2,3.1,31.2,3.1-1.4-6.1-2.8-12.6,3.8-29.7,4.7-12.3,10.2-26.8,15.6-40.7,12.3-32.1-14.1-46.4-57.2-46.4s-40.7,2.5-55.3,4.9l-10.1,26.3c9.6-3,30.4-8.3,60.8-8.1,28.4.2,25.9,11.9,24.1,17.7-9.8-.7-27.8-1.6-48,0-13.1,1-25.7,2.7-38.4,7.8-19.1,7.6-27.7,21-28.9,36.4-1.3,17.5,11,34.1,44.4,34.1h0ZM335.4,158.6L395.6,3.2h-40l-60.2,155.3h40Z"/>
    </g>
  </g>
</svg>