<svg width="147" height="51" viewBox="0 0 147 51" fill="none" xmlns="http://www.w3.org/2000/svg"><path d="M32.6159 46.6289C32.893 47.071 33.0646 47.3817 32.977 47.8528C32.9012 48.2623 32.6358 48.5767 32.2232 48.8503C28.7973 51.1153 23.584 51.3137 19.5587 50.7021C13.9906 49.856 9.40562 46.6406 7.8827 41.0843C7.30676 38.9824 7.06482 36.9104 7.06031 34.7062L7.03323 20.0167L0.912668 20.0149C0.426092 20.0149 0.0541642 19.6724 0 19.1922L0.00270821 11.7487C0.0198602 11.3492 0.289779 10.9053 0.715871 10.9034L7.03774 10.879L7.03955 0.886046C7.03955 0.473826 7.36182 0.0163076 7.80146 0.0163076L16.7331 0C17.1953 0.0317092 17.5555 0.376887 17.5555 0.868833L17.5582 10.8871L28.4507 10.8944C28.8912 10.8944 29.1765 11.2541 29.2279 11.6599L29.2297 19.0817C29.2595 19.5129 28.958 20.0067 28.475 20.0076L17.5564 20.0158L17.5673 34.9408C17.5691 37.6234 18.4303 39.9446 20.9525 40.9765C23.0812 41.8471 25.4048 41.6569 27.4396 40.5941C28.0273 40.2879 28.6881 40.3622 29.0564 40.9502L32.6159 46.6289Z" fill="white"/><path d="M95.8839 43.3813L90.6137 50.5046C90.2163 51.0417 89.5332 51.1104 88.9724 50.8623C88.5697 50.6839 88.0598 50.1914 88.058 49.5726L88.025 40.5174L88 34.6959C88 34.5835 88.0527 34.4989 88.1089 34.4553L88.3286 34.5593L88.3482 39.8465L95.4124 30.1056L95.6669 30.1326C95.8536 29.8817 95.9339 30.0164 96 30.2905V42.9074L95.883 43.3822L95.8839 43.3813Z" fill="white"/><path d="M85.9547 38.3019L86 40.9444L85.9867 49.5444C85.9858 50.2041 85.4541 50.7091 85.0085 50.8917C84.4422 51.1228 83.7881 50.9877 83.3958 50.451L78.2139 43.3632L78 42.7594L78.0799 30.396C78.0683 30.1081 78.1438 29.9599 78.4234 30.0736L78.6426 30L85.6982 39.8421L85.7337 38.4612L85.9547 38.3019Z" fill="white"/><path d="M103.974 19.9168L103.797 20.5061C101.366 23.6743 98.9386 26.8389 96.5117 30L96.2558 29.9742L96.0367 29.8994C96.0242 25.8535 96.0125 21.8023 96 17.7466L96.2174 17.1715L101.436 10.4559C101.817 9.96544 102.534 9.89957 103.061 10.1212C103.517 10.3135 104.003 10.8084 104 11.4334L103.973 19.9177L103.974 19.9168Z" fill="white"/><path d="M79.7824 17.1563L80 17.7294C79.9884 21.7559 79.9767 25.778 79.9642 29.7965L79.7439 29.9289L79.5227 30L72.2024 20.3406C72.0672 19.8431 72.0054 19.3286 72.0161 18.7964L72 11.4151C71.9982 10.7949 72.5104 10.3009 72.9572 10.117C73.4847 9.89934 74.1966 9.96953 74.5789 10.4617L79.7815 17.1554L79.7824 17.1563Z" fill="white"/><path d="M79.7532 30.1328C80.0245 30.0164 80.0749 30.1017 79.8907 30.3283C79.8341 30.3603 79.764 30.4269 79.764 30.5637L79.6787 43L76.1803 38.466C73.6719 34.7574 72.2138 30.3647 72.0503 25.8903L72 19C72.1932 19.2212 72.0216 19.6797 72.0539 20.0102L79.7523 30.1328H79.7532Z" fill="white"/><path d="M96.3569 43C96.2977 42.9462 96.2537 42.8728 96.2537 42.7601L96.2555 30.9653C96.2555 30.891 96.2044 30.8441 96.1398 30.8279C95.9091 30.6529 95.9747 30.5752 96.2573 30.6443L104 21L103.969 26.6515C103.95 30.4104 102.006 35.986 99.6136 38.956L96.356 43H96.3569Z" fill="white"/><path d="M86 38.8823L85.9528 41L78.1417 31.0103L78 30.8142L78.0389 18L81.7051 22.5813C84.235 26.1322 85.6277 30.3195 85.9796 34.6094L86 38.8814V38.8823Z" fill="white"/><path d="M95.9991 30.8182L95.8772 31.0098L88.0243 41L88.0001 35.156C87.9908 32.9447 88.5231 30.7629 89.2461 28.6007C90.1218 25.9804 91.4115 23.5945 93.1665 21.4358L95.96 18L96 30.8182H95.9991Z" fill="white"/><path d="M146.271 10.8254L137.175 10.8227C136.727 10.8227 136.449 11.3439 136.448 11.688L136.443 13.829C132.934 11.1142 128.637 9.86841 124.122 10.011C119.551 10.1553 115.277 11.8514 111.893 14.8305C102.675 22.9469 102.693 38.1765 112.003 46.1295C118.645 51.8034 129.314 52.9874 136.413 47.1755L136.46 49.3419C136.471 49.8386 136.877 50.1836 137.398 50.1818L146.214 50.16C146.698 50.1591 146.998 49.7314 146.998 49.3165L147 11.7307C147 11.3085 146.721 10.8263 146.27 10.8263L146.271 10.8254ZM133.347 38.7694C131.383 40.4019 128.95 41.1955 126.262 41.132C121.675 41.0248 117.87 38.2228 116.523 34.0642C115.762 31.7135 115.77 29.2302 116.534 26.8776C117.986 22.4067 122.342 19.6319 127.163 19.9052C129.987 20.0659 132.551 21.1991 134.423 23.2493C138.576 27.7992 138.117 34.8061 133.346 38.7703L133.347 38.7694Z" fill="white"/><path d="M63.8011 15.848C60.0925 11.657 54.6991 9.58456 49.1556 10.0693C44.5736 10.4705 40.3739 12.473 37.3021 15.9388C32.0167 21.9009 30.7044 30.7461 33.2688 38.1824C35.0795 43.4328 38.9859 47.5186 44.1229 49.5175C49.1079 51.4573 54.6542 51.4791 59.6823 49.6672C62.307 48.7214 64.5989 47.3098 66.6372 45.4371C66.9673 45.1339 67.1921 44.6093 66.8998 44.2144L62.8053 38.6771C62.6083 38.4111 62.3943 38.2414 62.1145 38.2078C61.8114 38.1715 61.5676 38.3095 61.305 38.5536C60.3083 39.4832 59.2856 40.2221 58.1199 40.8503C55.5743 42.2255 52.7122 42.6676 49.8932 42.0258C45.6934 41.0699 42.6397 37.5969 42.2016 33.2469L67.668 33.2415C68.4208 33.2415 68.885 32.5997 68.9335 31.9334C69.3653 26.043 67.6977 20.2552 63.7993 15.849L63.8011 15.848ZM42.6658 25.3595C42.9671 23.5839 43.8693 22.0816 45.1861 20.8743C48.257 18.0602 52.794 17.9095 55.9404 20.7617C57.215 21.9627 58.0758 23.4686 58.2674 25.3531L42.6658 25.3595Z" fill="white"/></svg>