<svg width="447" height="39" viewBox="0 0 447 39" fill="none" xmlns="http://www.w3.org/2000/svg">
<g clip-path="url(#clip0_6954_44)">
<path d="M137.079 9.59338L137.756 27.4908L138.095 27.5718L145.512 9.59338H151.252V27.3655L151.583 27.5645L159.545 9.59338H163.798L153.209 32.9728H148.014L147.742 14.2648L147.403 14.1838L139.442 32.9728H134.379L132.9 9.59338H137.079Z" fill="white"/>
<path d="M216.425 32.9728L220.222 14.0733L226.219 14.1838L227.418 27.0266L234.166 14.0585H240.17L236.395 32.9728H232.348L235.248 18.9142L227.963 32.9728H224.387L223.099 18.6489L220.067 32.9728H216.425Z" fill="white"/>
<path d="M196.859 32.9728L207.587 14.1912L211.502 14.0438L214.938 32.9728H211.23L211.046 32.7517L210.472 28.6697L203.32 28.7434L201.171 32.9802H196.852L196.859 32.9728ZM209.95 25.4056L209 18.1111L205.086 25.4056H209.942H209.95Z" fill="white"/>
<path d="M252.437 14.6111L251.642 18.111C250.222 17.1311 246.381 16.3427 245.38 18.1258C244.1 20.4025 248.368 21.9278 249.604 23.1951C251.885 25.5308 251.517 29.8486 248.934 31.8159C246.212 33.8864 241.826 33.4738 238.824 32.2359C238.64 32.0885 238.691 31.9191 238.721 31.7275C238.765 31.4033 239.545 28.6697 239.707 28.655C241.451 29.996 246.484 31.0128 247.029 28.0139C247.529 25.2803 244.902 24.8235 243.217 23.5193C241.524 22.2078 240.928 20.6015 241.274 18.4721C242.098 13.4248 248.589 13.0417 252.444 14.6185L252.437 14.6111Z" fill="white"/>
<path d="M186.734 14.0585L183.835 29.7307H190.516L189.839 32.9728H179.184L182.959 14.0585H186.734Z" fill="white"/>
<path d="M174.32 14.0585L171.222 29.7307H177.97L177.425 32.9728H166.763L170.612 14.0585H174.32Z" fill="white"/>
<path d="M167.58 14.0585L163.731 32.9728H159.883L163.731 14.0585H167.58Z" fill="white"/>
<path d="M199.155 14.0585L195.505 32.9728H191.598L195.24 14.0585H199.155Z" fill="white"/>
<path d="M129.257 21.8909C128.963 23.1804 128.86 24.6098 128.382 25.8108H120.626L121.303 21.8909H129.265H129.257Z" fill="white"/>
<path d="M71.0967 14.0585L71.7074 27.7045L77.7781 14.0585H82.9731V27.7045L89.5147 14.0585H93.6281L84.5257 32.9728H79.5956L79.3969 18.7816L73.0982 32.9507L68.1901 32.8475L67.0496 14.0585H71.0967Z" fill="white"/>
<path d="M98.6245 32.9728L102.679 14.0585L107.734 14.1838L111.443 27.5645L114.548 14.0585H118.323L114.261 32.9507L109.154 32.9654L105.438 19.3194L102.539 32.9728H98.6245Z" fill="white"/>
<path d="M18.0722 10.2713L16.9169 13.7785C14.8345 12.6144 9.35251 11.826 8.18989 14.5006C6.81387 17.669 12.0751 19.3342 13.9441 20.9478C15.8205 22.5688 16.3871 24.654 16.0266 27.0782C14.9449 34.2622 5.23917 34.2548 0 32.1475L0.934515 28.515C3.60561 29.436 6.34293 30.7255 9.16119 29.5244C10.8315 28.8171 11.7734 27.2256 11.3981 25.3982C10.7138 22.0604 3.80429 21.9425 3.36278 16.9616C2.65638 9.01131 12.5755 8.14922 18.0648 10.2786L18.0722 10.2713Z" fill="white"/>
<path d="M24.6802 14.0585L23.0613 21.6183H30.1474L31.8325 14.0585H35.8796L31.965 32.9728H27.9179L29.5367 24.8677H22.3843L20.5668 32.9728H16.5859L20.6993 14.0585H24.6802Z" fill="white"/>
<path d="M49.1025 32.9728L53.0981 14.0512C55.0187 14.1396 56.9687 13.9627 58.8892 14.0512C62.5022 14.228 65.5338 14.8838 65.1659 19.2605C64.9599 21.7215 62.9657 23.4235 60.5743 23.6446L61.3101 24.4625L63.4072 32.9654H59.2939L59.1173 32.737C58.6464 30.8875 58.4698 28.8171 57.9694 26.9971C57.4249 25.0077 56.7185 25.214 54.7906 25.2877L53.157 32.9728H49.1099H49.1025ZM60.5301 17.8826C59.7869 17.1237 57.5426 17.4848 56.5198 17.4921L55.5853 22.0236C57.182 22.0973 60.0003 21.9278 60.7361 20.2257C61.0378 19.5331 61.0894 18.4574 60.5301 17.8826Z" fill="white"/>
<path d="M49.9782 14.0585C50.1107 14.1617 50.1328 14.1764 50.1254 14.3385C50.1181 15.1711 49.5588 16.5269 49.4852 17.4184L42.2372 17.4553L41.4131 21.6257H47.8885L47.1968 24.853L40.611 24.8825L39.6544 29.7307H46.9392L46.2623 32.9728H34.7905L38.9039 14.0585H49.9709H49.9782Z" fill="white"/>
<path d="M99.5663 14.0585L95.4529 32.9728H91.3396L95.4529 14.0585H99.5663Z" fill="white"/>
<path d="M279.474 39.4546V21.9055H283.911V39.4546H279.474ZM272.918 32.8985V28.4616H290.467V32.8985H272.918Z" fill="white"/>
<path d="M328.935 8.46613H305.189V32.2434H328.935V8.46613Z" stroke="white" stroke-width="2" stroke-miterlimit="10"/>
<path d="M317.571 0.989575L295.775 10.425L305.198 32.25L326.994 22.8146L317.571 0.989575Z" stroke="white" stroke-width="2" stroke-miterlimit="10"/>
<path d="M342.901 32.5381C341.886 32.5381 340.87 32.4128 339.884 32.1476C339.075 31.9486 338.317 31.6023 337.647 31.1086V25.8919C338.184 26.3414 338.795 26.6951 339.457 26.9309C340.296 27.2551 341.186 27.4172 342.084 27.4024C343.063 27.4835 344.042 27.2035 344.844 26.6288C345.381 26.2309 345.719 25.6119 345.749 24.9488C345.756 24.4551 345.609 23.9688 345.315 23.5709C344.88 23.0331 344.314 22.6205 343.674 22.3626L341.65 21.2868C340.539 20.7268 339.546 19.9679 338.721 19.0469C337.956 18.1111 337.559 16.9322 337.603 15.7238C337.596 13.8228 338.493 12.0249 340.016 10.8902C341.878 9.51238 344.167 8.82714 346.477 8.94503C347.375 8.93029 348.273 9.01871 349.148 9.20292C349.752 9.30607 350.333 9.51238 350.87 9.80711V14.987C350.384 14.6775 349.869 14.427 349.317 14.2501C348.663 14.0365 347.978 13.9333 347.294 13.9481C346.47 13.9038 345.646 14.0954 344.925 14.508C344.38 14.788 344.042 15.3628 344.064 15.9743C344.049 16.3796 344.203 16.7701 344.498 17.0501C344.88 17.4332 345.337 17.7353 345.837 17.9564L347.78 18.9511C349.023 19.5405 350.105 20.4321 350.922 21.5373C351.621 22.5836 351.981 23.8141 351.959 25.0741C351.967 27.0709 351.135 28.9792 349.678 30.335C348.17 31.8013 345.925 32.5381 342.916 32.5381" fill="white"/>
<path d="M363.799 32.5381C361.444 32.6781 359.134 31.8676 357.375 30.2982C355.778 28.6698 354.932 26.4519 355.05 24.1678V15.407H361.084V24.6394C361.039 25.4425 361.267 26.2309 361.731 26.8793C362.231 27.4761 362.982 27.793 363.755 27.7414C364.557 27.793 365.329 27.4761 365.866 26.8793C366.359 26.2383 366.602 25.4425 366.558 24.6394V15.407H372.548V24.1678C372.666 26.4446 371.819 28.6698 370.223 30.2982C368.714 31.8086 366.558 32.5381 363.799 32.5381Z" fill="white"/>
<path d="M392.541 15.4144L383.924 32.4571H383.321L374.704 15.4144H380.606L383.622 22.8342L386.639 15.4144H392.541Z" fill="white"/>
<path d="M400.937 15.4144H395.079V32.0739H400.937V15.4144Z" fill="white"/>
<path d="M411.842 23.1362V32.1107H405.719V15.407H411.496V18.2143C412.07 17.2711 412.864 16.4827 413.821 15.9301C414.895 15.267 416.139 14.9207 417.397 14.9354C419.068 14.8543 420.694 15.4806 421.879 16.6596C423.056 17.949 423.659 19.6584 423.556 21.4047V32.1034H417.434V22.9152C417.493 22.0826 417.243 21.2573 416.742 20.5868C416.249 20.0047 415.521 19.6879 414.763 19.7247C413.946 19.7026 413.166 20.0342 412.607 20.631C412.084 21.3605 411.812 22.2373 411.834 23.1362" fill="white"/>
<path d="M434.116 15.4144H428.258V32.0739H434.116V15.4144Z" fill="white"/>
<path d="M401.201 10.2787C400.973 12.0397 399.355 13.2849 397.596 13.0565C396.154 12.865 395.013 11.7303 394.822 10.2787C395.05 8.51771 396.669 7.27248 398.427 7.50089C399.87 7.69247 401.01 8.82717 401.201 10.2787Z" fill="white"/>
<path d="M434.38 10.2787C434.152 12.0397 432.533 13.2849 430.775 13.0565C429.333 12.865 428.192 11.7303 428.001 10.2787C428.229 8.51771 429.848 7.27248 431.606 7.50089C433.049 7.69247 434.189 8.82717 434.38 10.2787Z" fill="white"/>
<path d="M438.906 27.233V8.37769H444.807V26.0688C444.785 26.4298 444.91 26.7835 445.153 27.0561C445.381 27.2551 445.668 27.3656 445.97 27.3582C446.191 27.3582 446.404 27.3214 446.618 27.2698C446.757 27.2477 446.89 27.1888 447.008 27.1003V31.8897C446.618 32.1181 446.198 32.2802 445.757 32.3612C445.19 32.4939 444.616 32.5676 444.035 32.5749C442.099 32.5749 440.76 32.0592 440.024 30.976C439.281 29.8634 438.891 28.5592 438.906 27.2182" fill="white"/>
</g>
<defs>
<clipPath id="clip0_6954_44">
<rect width="447" height="39" fill="white"/>
</clipPath>
</defs>
</svg>
