<?xml version="1.0" encoding="UTF-8"?>
<svg id="Camada_1" data-name="Camada 1" xmlns="http://www.w3.org/2000/svg" viewBox="0 0 887.87 715.06">
  <defs>
    <style>
      .cls-1 {
        fill: #ee3842;
      }

      .cls-2 {
        fill: #25347a;
      }
    </style>
  </defs>
  <path class="cls-2" d="M672.96,374.36l-51.37,49.69-32.51,31.67c-1.59,1.55-3.94,1.87-5.4.64-1.23-1.04-1.58-3.82-.01-6.08,24.16-34.67,41.75-79.96,28.9-120.43-6.14-19.33-20.18-33.82-36.78-39.16-21.15-6.81-40.98-2.49-56.66,11.01-20.71,17.83-27.85,44.48-17.93,70.2,5.47,14.17,14.41,26.32,25.44,36.95,6.36,6.12,7.98,15.01,3.98,23.06-13.99,28.11-58.86,42.11-91.99,38.77-18.3-1.85-33.94-11.34-46.06-24.85-55.55-61.93-55.07-213.39-45.06-295.78,6.77-55.77,29.32-142.3,90.29-149.41,32.12-3.75,74.14,9.09,91.24,35.74,5.62,8.76,4.97,19.23-2.5,26.34-30.59,29.13-42,70.33-13.25,101.27,14.32,15.4,33.4,22.68,54.46,18.77,18.46-3.43,35.16-16.68,42.94-36.18,16.65-41.75-2.36-89.81-27.4-126.31-1.39-2.02-.73-4.26.2-5.21,1.72-1.78,4.1-1.06,5.73.7,8.36,9.02,17.2,16.5,25.98,25.03l47.51,46.19,50.96,49.33,45.89,44.53,25.35,23.99c16.35,15.47,19.76,39.36,4.57,56.77l-18.46,17.65-47.5,46.17-50.56,48.94Z"/>
  <path class="cls-1" d="M215.83,375.18l-51.38-49.74-46.67-45.38c-6.47-6.29-13.43-11.73-19.29-18.45-15.17-17.4-11.77-41.35,4.55-56.78l26.21-24.78,45.88-44.56,51.79-50.14,47.52-46.15c8.52-8.27,16.92-15.73,25.19-24.2,1.25-1.28,4.06-.76,4.77.02.88.96,1.75,3.24.21,5.15-51.84,64.23-79.31,130.91-79.63,214.81-.33,85.23,27.3,151.2,79.8,216.27,1.45,1.8.42,4.43-.59,5.14-1.16.81-3.78.82-5.35-.71l-32.52-31.61-50.5-48.91Z"/>
  <path class="cls-2" d="M41.89,601.28c-20.21,35.31-9.07,91.41,23.59,95.57,10.48,1.34,24.34-2.17,27.76-12.66-3.07-5.93-6.9-13.2-2.34-20.29,3.26-5.07,10.01-8.95,17.53-6.92,5.81,1.57,11.14,8.14,11.33,15.72.29,11.53-5.75,21.53-15.14,29.06-28.98,23.23-72.49,15.1-92.5-17.02-16.7-26.81-15.92-61.37.97-87.82,18.45-28.89,55.53-37.88,84.57-20.73,11.39,6.73,19.84,17.15,21.32,30.25.9,8.02-3.19,15.81-9.32,18.51-7.22,3.17-14.74-.51-18.6-5.11-6-7.15-1.29-15.22,1.01-21.72-2.55-9.88-15.66-13.35-25.2-12.81-9.43.54-19.33,6.13-24.97,15.99Z"/>
  <path class="cls-2" d="M788.41,684.14c0,3.92,1.21,6.74,2.82,8.66,1.88,2.24,6.59,1.17,9.65,2.83,4.05,2.21,1.34,9.7-2.57,12.17-7.43,4.69-16.38,7.64-25.27,5.56-5.98-1.4-7.89-7.49-10.25-13.66-7.17,9.15-16.57,13.63-27.72,14.21-18.88.99-34.97-12.28-35.35-31.03l-.87-43.38c-.07-3.44-1.01-6.25-2.83-7.83-2.29-1.99-5.56-1.28-9.01-2.1-4.44-1.06-2.98-8.76.15-11.76,6.69-6.39,15.98-9.32,25.17-8.54,7.54.64,12.59,6.45,12.65,13.95l.34,45.95c.05,6.93,1.26,14.98,6.03,20.03,5.09,5.39,13.78,5.04,19.88,2.03,5.57-2.75,10.48-9.47,10.52-16.96l.17-38.56c.03-6.44-8.2-5.21-11.81-6.31-4.47-1.9-1.35-10.03,1.62-12.45,7.22-5.92,15.14-8.41,24.57-7.59,6.52.57,12.19,5.78,12.18,12.8l-.06,61.98Z"/>
  <path class="cls-2" d="M546.18,684.58c0,9.44,5.75,12.67,13.76,13.44,2.74.27,3.04,5.45,1.96,7.38s-2.92,4.18-6.26,4.88c-16.44,3.43-44,3.57-47.17-4.66-3.92-10.2,11.72-7.1,11.74-18.45l.13-60.76-13.89-1.6c-4.26-.49-2.61-9.22.44-11.83,2.91-2.5,7.41-2.95,13.22-2.57-1.15-21.95,3.83-42.64,23.96-48.41,23.35-6.69,50.92,3.53,49.49,23.05-.42,5.76-4.51,9.93-7.91,11.4-6.42,2.78-11.53.07-15.39-3.4-4.76-4.28-2.4-10.8-2.08-15.49-5.47-5.99-19.03-3.39-21.18,5.19-2.27,9.05-1.71,17.94-1.2,27.07l24.57.78c2.73.09,2.49,6.9,1.52,9.34-1.07,2.72-3.47,6.43-7.91,6.43h-17.81s.02,58.19.02,58.19Z"/>
  <path class="cls-2" d="M281.55,686.83c-.12,13.19,16.28,7.32,14.59,17.52-.44,2.63-2.64,5.58-6.48,6.32-15.57,3-41.13,3-44.43-5-4.18-10.14,11.85-6.38,11.87-20.11l.04-47.73c0-3.17-1.29-5.57-2.76-6.99-1.93-1.86-6.89-1.01-10-1.18-4.93-6.84,1.44-16.02,10.05-18.55,5.48-1.61,10.43-3.57,16.11-1.4,4.2,1.61,7.83,5.69,9.61,12.13,10.23-13.82,26.1-19.21,35.59-9.4,3.75,3.87,4.75,9.69,3.2,15.28-1.75,6.31-6.65,9.85-12.3,10.12-6.26.3-11.43-3.2-14.16-10.24-6.89,4.03-10.49,11.2-10.56,19.18l-.36,40.05Z"/>
  <path class="cls-2" d="M849.79,687.21c-.07,12.1,15.48,7.26,14.52,17.04-.25,2.56-2.46,5.51-5.92,6.22-15.88,3.28-41.93,3.36-45.26-5.15-3.73-9.52,12.13-5.89,12.1-19.96l-.1-48.82c0-4.43-3.27-7.67-8.01-6.88-2.19.37-5.45.38-5.99-1.1-.58-1.6-1.21-4.95-.08-7.19,4.55-9.02,16.33-14.13,26.44-12.01,6.04,1.27,8.22,6.97,11.37,12.5,5.12-8.85,13.93-14.97,24.22-14.19,7.28.55,13.05,5.88,14.38,11.73,1.59,6.97-1.64,14.51-8.77,17.46-7.77,3.21-15.16-1.66-18.14-9.63-7.6,4.9-10.48,12.42-10.53,20.52l-.24,39.47Z"/>
  <path class="cls-2" d="M365.98,685.56c-.14,14.46,16.21,8.94,14.83,18.67-.39,2.72-2.5,5.47-6,6.2-16.13,3.35-42.16,3.3-45.21-5.06-3.49-9.58,11.89-6.4,11.89-18.57l.03-50.26c0-4.48-3-7.53-7.83-6.92-1.51.19-4.37.43-5.35-.19-1.25-.79-1.7-4.16-1.15-6.48,2.42-10.34,19.92-17.11,28.53-12.92,3.82,1.86,7.21,5.81,8.48,11.65,6.1-6.81,12.36-13.39,22.15-14.12,7.84-.59,14.92,3.73,17.11,10.57,2.2,6.86-.58,15.57-8.14,18.7-7.88,3.27-15.4-1.48-18.23-9.58-7.64,4.77-10.66,12.32-10.74,20.5l-.37,37.8Z"/>
  <path class="cls-2" d="M234.04,698.28c-3.46-1.41-12.52-1.55-12.61-7.16l-.91-54.83c-.2-12.11-6.07-21.74-17.81-25.37-22.78-7.04-55.29-3.11-61.12,15.49-2.06,6.59.68,12.92,5.65,16.14,4.79,3.11,10.21,1.73,14.87-.9,5.56-3.14,3.38-10.3,5.99-14.93,4.22-6.22,19.32-4.11,23.65,1.39,5.42,6.88,4.06,14.77,3.69,23.96-23.3-7.94-56.09-1.81-61.23,21.01-2.38,10.58-.36,21.3,7.17,29.2,15.46,16.22,39.96,14.85,57.5.59,5.26,8.82,11.78,10.67,19.93,10.93,8.79.27,17.39-7.35,15.25-15.53ZM194.82,686.34c-4.49,8.62-15.96,10.95-24.2,7.93-5.77-2.12-8.74-7.26-9.4-11.49-.91-5.88-.15-11.63,5.11-15.28,7.8-5.42,20.92-6.15,28.01,1.38,2.26,3.7,2.52,13.54.47,17.46Z"/>
  <path class="cls-2" d="M631.41,607.69c-33.68-1.74-59.66,26.16-55.72,59.65,3.36,28.58,26.98,48.36,55.77,46.27,26.48-1.92,46.26-21.12,48.3-48.47,2.34-31.32-17.78-55.88-48.35-57.45ZM628.92,697.29c-20.67,1.05-30.47-33.23-21.12-59.83,2.97-8.46,10.19-13.82,17.99-14.2,8.08-.4,15.89,4.15,19.85,12.08,11.75,23.53,6.91,60.75-16.72,61.95Z"/>
  <path class="cls-2" d="M490.49,680.93c-13.75,13.97-34.64,15.96-49.52,3.55-7.1-5.92-9.34-15-9.9-22.95l63.39-.32c5.51-12.83,3.5-25.48-3.39-36.34-6.29-9.9-17.59-15.94-30.49-17.06-30.05-2.6-53.85,18.25-56.26,48.21-1.29,16.07,3.12,31.39,14.16,42.67,19.75,20.19,55.17,19.1,70.24,3.84,6.06-6.14,8.66-15.78,1.79-21.59ZM444.11,624.94c6.6-2.95,14.12-2.12,19.69,1.94,5.09,3.72,8.66,9.48,7.8,19.14l-40.03.57c-.26-8.71,3.99-17.83,12.54-21.65Z"/>
</svg>